<svg id="Camada_1" data-name="Camada 1" xmlns="http://www.w3.org/2000/svg" viewBox="0 0 1013.41 311.11"><defs><style>.cls-1{fill:#eabc9f;}</style></defs><path class="cls-1" d="M85.93,219.09c12,0,18.41-5.06,18.41-12.88,0-9-7.59-10.59-13.12-11.75l-22.09-3.91c-26-4.37-35.91-17.72-35.91-35.21,0-25.32,20.26-39.59,50.87-39.59,32,0,50.87,15.65,51.56,38.67H102c-.23-9.9-7.36-14.5-18.41-14.5-10.59,0-16.34,4.83-16.34,12.19,0,9.67,9.66,11,16.11,12.2l21.4,3.45c24.86,3.92,34.3,17.73,34.3,35.68,0,25.32-21.41,40.05-53.4,40.05-35,0-54.55-17-54.55-41h33.6C64.75,213.34,73,219.09,85.93,219.09Z"/><path class="cls-1" d="M161,71.09H195V104.7H161Zm0,47H195V241.19H161Z"/><path class="cls-1" d="M224.26,118.05h30.15l4.14,22.55h2.07c7.37-16.1,22.1-24.85,40.51-24.85,28.77,0,42.12,20.94,42.12,51.55v73.89H309.19V170.76c0-18.19-8.29-26.7-23-26.7-17.49,0-27.62,13.12-27.62,32.22v64.91H224.26Z"/><path class="cls-1" d="M358.9,255.92c0-12,7.14-20,18.87-23.48V230.6c-7.13-2.3-12-8.74-12-17,0-10.82,7.83-18.41,19.57-21.18v-1.84c-14-6-21.64-18.64-21.64-33.6,0-24.63,20-41.2,49.95-41.2,6.68,0,14.27.92,19.56,3.22,9-17.49,21.41-31.07,44.89-29.46v25.32c-12.2-.46-21.41,5.29-25.55,13.12,8.06,5.75,13.58,16.8,13.58,29,0,24.39-19.34,39.82-49.72,39.82a71.29,71.29,0,0,1-14.73-1.38,8.25,8.25,0,0,0-6.44,8.05c0,8.29,9.9,8.29,14.73,8.29h29.46c26.24,0,39.36,13.81,39.36,33.6,0,28.31-26.47,39.59-65.37,39.59C370.64,284.92,358.9,271.34,358.9,255.92ZM445,247.86c0-9.43-9.43-9.43-14-9.43H404.7c-6.67,0-14,2.53-14,10.35,0,8.29,7.6,12.2,26.7,12.2C436.93,261,445,256.61,445,247.86Zm-12-91.6c0-10.82-7.13-17.27-17.95-17.27-11.05,0-17.95,6.91-17.95,17.27,0,10.82,7.13,17.26,17.95,17.26C426.11,173.52,433,166.61,433,156.26Z"/><path class="cls-1" d="M612.78,241.19H582.85l-4.14-22.56h-2.3c-7.14,15.42-20.49,24.86-40,24.86-27.39,0-41.2-18.87-41.2-48.33V118.05h34.3v71.81c0,17.27,7.82,25.55,22.09,25.55,16.8,0,27.16-13.35,27.16-32.45V118.05h34.07Z"/><path class="cls-1" d="M806.88,168.46l32.22-3.23v-6.44c0-11.28-7.36-16.11-18.64-16.11-12.89,0-20.49,6.67-20.26,16.8H768c-.23-27.85,21.18-43.73,53.86-43.73,33.6,0,51.33,15,51.33,41.2v52.7c0,4.61,1.38,7.83,6.21,7.83a18.24,18.24,0,0,0,3.91-.46V241a76,76,0,0,1-16.8,2.07c-16.11,0-24.4-7.59-25.55-20.48h-1.61c-5.52,12.43-20.71,20.94-38.44,20.94-23,0-39.58-14-39.58-37.06C761.31,182.5,779.49,171.22,806.88,168.46Zm6.44,49c16.35,0,25.78-10.13,25.78-25.09v-6.67l-23,2.3c-14.73,1.38-20.26,6.44-20.26,15.42C795.83,212.65,803,217.48,813.32,217.48Z"/><path class="cls-1" d="M903.77,118.05H933.7l2.53,24.17h1.38c6-19.34,23.47-28.08,44.65-25.55v30.61c-26.7-3.22-44.19,9.21-44.19,43v50.87h-34.3Z"/><path class="cls-1" d="M636.86,284.34l-15.49-28.21,7.75,14.11-7.79-14.09c1.95-1.08,28.25-16.08,50.82-46.66-24.45-36.66-27.41-86.19-27.41-107.95,0-21.13,3.84-39.22,11.12-52.33,8.12-14.63,20.59-23,34.22-23,23.3,0,46.81,24.15,46.87,78.1,1,41.69-9.81,75.64-24.74,102.36,9.3,7.66,19.86,11.34,32.53,11.14l.45,32.18a81.64,81.64,0,0,1-50.9-16.49C668.08,266.8,639.1,283.11,636.86,284.34Zm53.22-226c-2.68,0-13.16,11.26-13.16,43.17,0,28.5,5.16,55,14.15,75.31a166.58,166.58,0,0,0,13.71-71.93v-.42C704.77,70.41,693.07,58.37,690.08,58.37Z"/></svg>